<svg data-name="Group 979" xmlns="http://www.w3.org/2000/svg" width="67.968" height="67.968"><circle data-name="Ellipse 215" cx="33.984" cy="33.984" r="33.984" fill="rgba(255,255,255,0)"/><g data-name="Group 951"><path data-name="Path 2865" d="M55.086 42.698a5.071 5.071 0 0 1-.57 3.141c-1.495 2.587-5.572 3.394-10.748 2.6a42.722 42.722 0 0 0 1.677-7.856 38.766 38.766 0 0 0 8.1-8.02c3.154-4.392 3.987-8.376 2.345-11.221-1.887-3.27-6.649-4.343-12.66-3.362-2.156-5.7-5.466-9.283-9.241-9.283a6.794 6.794 0 0 0-4.335 1.69l1 1.224a5.258 5.258 0 0 1 3.334-1.333c2.987 0 5.726 3.128 7.623 8.01a42.818 42.818 0 0 0-7.623 2.468c-10.081-4.282-19.116-4.237-21.9.587-1.642 2.845-.809 6.829 2.345 11.221a38.767 38.767 0 0 0 8.1 8.02 42.732 42.732 0 0 0 1.677 7.856c-5.177.8-9.255-.01-10.748-2.6a5.074 5.074 0 0 1-.57-3.142l-1.571-.17a6.612 6.612 0 0 0 .772 4.1c1.441 2.5 4.556 3.714 8.624 3.714a25.19 25.19 0 0 0 4.035-.353c2.156 5.7 5.466 9.284 9.243 9.284s7.086-3.587 9.242-9.283a25.251 25.251 0 0 0 4.035.353c4.067 0 7.183-1.218 8.624-3.714a6.613 6.613 0 0 0 .772-4.1zm-12.927 5.446a40.356 40.356 0 0 1-6.153-1.837q1.941-.925 3.9-2.055c1.3-.75 2.541-1.546 3.735-2.37a40.373 40.373 0 0 1-1.482 6.263zM23.71 33.984a52.823 52.823 0 0 1 .311-5.751 52.678 52.678 0 0 1 4.827-3.146 51.361 51.361 0 0 1 5.136-2.6 51.47 51.47 0 0 1 5.138 2.6 52.673 52.673 0 0 1 4.815 3.139 51.515 51.515 0 0 1 .322 5.759 51.486 51.486 0 0 1-.32 5.746 52.74 52.74 0 0 1-4.817 3.152 51.382 51.382 0 0 1-5.138 2.6 51.352 51.352 0 0 1-5.136-2.6 52.637 52.637 0 0 1-4.818-3.152 51.49 51.49 0 0 1-.32-5.746zm21.952 4.42a55.283 55.283 0 0 0-.002-8.857 39.453 39.453 0 0 1 4.69 4.435 39.391 39.391 0 0 1-4.688 4.423zm8.855-16.275c1.294 2.241.471 5.707-2.26 9.508-.272.378-.574.754-.875 1.13a42.668 42.668 0 0 0-5.938-5.386 42.727 42.727 0 0 0-1.676-7.85c5.177-.797 9.255.011 10.749 2.599zm-12.358-2.305a40.441 40.441 0 0 1 1.487 6.256c-1.193-.822-2.437-1.614-3.734-2.363s-2.614-1.437-3.91-2.053a40.369 40.369 0 0 1 6.157-1.84zm-14.1 3.893c-1.3.754-2.556 1.55-3.754 2.376a39.474 39.474 0 0 1 1.493-6.271 40.264 40.264 0 0 1 6.17 1.841q-1.945.926-3.912 2.055zm-14.606-1.588c1.5-2.592 5.587-3.4 10.777-2.592a42.638 42.638 0 0 0-1.693 7.835 42.639 42.639 0 0 0-5.949 5.395c-.3-.376-.6-.752-.876-1.13-2.733-3.8-3.556-7.266-2.262-9.507zm4.167 11.853a39.431 39.431 0 0 1 4.693-4.439 54.825 54.825 0 0 0-.006 8.861 39.372 39.372 0 0 1-4.689-4.421zm6.7 7.9a54.972 54.972 0 0 0 7.636 4.425 40.439 40.439 0 0 1-6.153 1.837 40.471 40.471 0 0 1-1.48-6.262zm9.663 15.812c-2.988 0-5.727-3.128-7.624-8.011a42.651 42.651 0 0 0 7.623-2.47 42.765 42.765 0 0 0 7.624 2.471c-1.896 4.882-4.634 8.01-7.622 8.01z" fill="#fff"/><path data-name="Path 2866" d="M12.645 43.469a3.165 3.165 0 0 1-3.161-3.161 3.165 3.165 0 0 1 3.161-3.161 3.165 3.165 0 0 1 3.161 3.161 3.165 3.165 0 0 1-3.161 3.161zm0-4.742a1.583 1.583 0 0 0-1.581 1.581 1.582 1.582 0 0 0 1.581 1.581 1.582 1.582 0 0 0 1.581-1.581 1.583 1.583 0 0 0-1.581-1.58z" fill="#22e8b3"/><path data-name="Path 2867" d="M55.322 43.469a3.165 3.165 0 0 1-3.161-3.161 3.165 3.165 0 0 1 3.161-3.161 3.165 3.165 0 0 1 3.161 3.161 3.165 3.165 0 0 1-3.161 3.161zm0-4.742a1.583 1.583 0 0 0-1.581 1.581 1.582 1.582 0 0 0 1.581 1.581 1.582 1.582 0 0 0 1.581-1.581 1.583 1.583 0 0 0-1.581-1.58z" fill="#22e8b3"/><path data-name="Path 2868" d="M28.451 15.807a3.164 3.164 0 0 1-3.161-3.161 3.164 3.164 0 0 1 3.161-3.161 3.165 3.165 0 0 1 3.161 3.161 3.165 3.165 0 0 1-3.161 3.161zm0-4.742a1.583 1.583 0 0 0-1.581 1.581 1.582 1.582 0 0 0 1.581 1.581 1.582 1.582 0 0 0 1.581-1.581 1.583 1.583 0 0 0-1.581-1.58z" fill="#22e8b3"/><path data-name="Path 2869" d="M33.984 39.994l-5.532-2.766v-6.509l5.532-2.766 5.532 2.766v6.509zm-3.952-3.743l3.952 1.976 3.952-1.976v-4.556l-3.952-1.976-3.952 1.976zm8.694.488z" fill="#22e8b3"/></g></svg>