<svg xmlns="http://www.w3.org/2000/svg" width="231" height="159"><defs><linearGradient id="a" y1=".5" x2="1" y2=".5" gradientUnits="objectBoundingBox"><stop offset="0" stop-color="#6f02b7"/><stop offset="1" stop-color="#f36"/></linearGradient></defs><g data-name="Group 999"><path data-name="Rectangle 2199" fill="rgba(255,255,255,0)" d="M0 0h231v159H0z"/><g data-name="Group 998"><g data-name="Group 997" fill="#011628"><path data-name="Path 2927" d="M115.5 14a65.861 65.861 0 0 0-61.257 42.258l3.826 1.453a61.792 61.792 0 0 1 52.269-39.4l-6.519 6.519 2.894 2.894 13.728-13.728z"/><path data-name="Path 2928" d="M138.734 18.241l-1.451 3.828a61.787 61.787 0 0 1 39.4 52.269l-6.519-6.519-2.894 2.894 13.728 13.729v-4.945a65.864 65.864 0 0 0-42.264-61.256z"/><path data-name="Path 2929" d="M120.66 140.686l6.521-6.52-2.894-2.894L110.559 145h4.941a65.862 65.862 0 0 0 61.255-42.258l-3.826-1.453a61.79 61.79 0 0 1-52.269 39.397z"/><path data-name="Path 2930" d="M54.313 84.662l6.521 6.519 2.894-2.894L50 74.558v4.943a65.866 65.866 0 0 0 42.25 61.255l1.455-3.828a61.8 61.8 0 0 1-39.392-52.266z"/></g><path data-name="Path 2931" d="M434.061 1332.343c-7.418 0-15.912-8.622-19.6-12.807-3.682 4.18-12.167 12.787-19.583 12.787-9.6 0-17.413-7.08-17.413-15.783s7.811-15.783 17.413-15.783c7.42 0 15.915 8.619 19.6 12.8 3.684-4.18 12.173-12.787 19.582-12.787 9.6 0 17.413 7.082 17.413 15.785s-7.81 15.788-17.412 15.788zm-17.075-15.786c3.95 4.583 11.7 11.921 17.075 11.921 7.471 0 13.55-5.349 13.55-11.921s-6.079-11.919-13.55-11.919c-5.377.001-13.124 7.339-17.075 11.92zm-22.108-11.939c-7.471 0-13.546 5.349-13.546 11.921s6.075 11.921 13.546 11.921c5.375 0 13.125-7.338 17.079-11.921-3.957-4.582-11.702-11.921-17.079-11.921z" transform="translate(-298.97 -1237.05)" fill="url(#a)"/></g></g></svg>