<svg xmlns="http://www.w3.org/2000/svg" width="231" height="159"><defs><linearGradient id="a" y1=".5" x2="1" y2=".5" gradientUnits="objectBoundingBox"><stop offset="0" stop-color="#6f02b7"/><stop offset="1" stop-color="#f36"/></linearGradient></defs><g data-name="Group 838"><path data-name="Rectangle 1810" fill="rgba(255,255,255,0)" d="M0 0h231v159H0z"/><g data-name="Group 828"><g data-name="Group 827"><path data-name="Path 2678" d="M119.726 152.248h-4.048v-29.495h15.761a11.725 11.725 0 0 0 11.712-11.71V88.414h13.736v-2.109l-13.736-29.762V56.1a46.051 46.051 0 1 0-92.1 0c0 13.36 4.834 24.947 9.51 36.151 4.528 10.85 8.805 21.1 8.805 32.527v27.471h-4.048v-27.471c0-10.617-4.127-20.5-8.494-30.969-4.828-11.573-9.822-23.538-9.822-37.709a50.1 50.1 0 0 1 100.2-.449l13.738 29.764v7.052h-13.741v18.58a15.777 15.777 0 0 1-15.761 15.759h-11.712z" fill="#011628"/><g data-name="Group 826"><path data-name="Rectangle 2185" fill="#011628" d="M110.836 122.753h6.867v4.048h-6.867z"/></g></g><path data-name="Path 2679" d="M589.006 580.745l-9.158-9.158-2.862 2.862 5.7 5.7h-77.525a38.7 38.7 0 0 0-38.653 38.655 36.4 36.4 0 0 0 36.363 36.363 34.112 34.112 0 0 0 34.074-34.067 31.821 31.821 0 0 0-31.784-31.784 29.529 29.529 0 0 0-29.5 29.495 27.238 27.238 0 0 0 27.208 27.206 24.944 24.944 0 0 0 24.918-24.917 22.651 22.651 0 0 0-22.627-22.627 20.361 20.361 0 0 0-20.339 20.337 18.07 18.07 0 0 0 18.05 18.05 15.779 15.779 0 0 0 15.761-15.76 13.486 13.486 0 0 0-13.471-13.469 11.194 11.194 0 0 0-11.182 11.18 8.9 8.9 0 0 0 8.892 8.892 6.611 6.611 0 0 0 6.6-6.605h-4.048a2.559 2.559 0 0 1-2.555 2.557 4.851 4.851 0 0 1-4.844-4.844 7.14 7.14 0 0 1 7.133-7.131 9.432 9.432 0 0 1 9.423 9.421 11.724 11.724 0 0 1-11.712 11.712 14.018 14.018 0 0 1-14-14 16.31 16.31 0 0 1 16.291-16.289 18.6 18.6 0 0 1 18.58 18.576 20.89 20.89 0 0 1-20.868 20.868 23.185 23.185 0 0 1-23.159-23.157 25.476 25.476 0 0 1 25.449-25.447A27.768 27.768 0 0 1 532.9 621.1a30.059 30.059 0 0 1-30.025 30.025 32.35 32.35 0 0 1-32.315-32.315 34.644 34.644 0 0 1 34.6-34.606h77.53l-5.7 5.7 2.862 2.862 9.158-9.158a2.022 2.022 0 0 0-.004-2.863z" transform="translate(-405.772 -560.417)" fill="url(#a)"/><path data-name="Rectangle 2186" fill="#00b2ff" d="M74.472 131.645h4.048v20.604h-4.048z"/><path data-name="Rectangle 2187" fill="#00b2ff" d="M83.629 140.802h4.048v11.447h-4.048z"/><path data-name="Rectangle 2188" fill="#00b2ff" d="M74.472 113.331h4.048v4.578h-4.048z"/><path data-name="Rectangle 2189" fill="#00b2ff" d="M74.472 122.487h4.048v4.579h-4.048z"/><path data-name="Rectangle 2190" fill="#00b2ff" d="M83.629 131.645h4.048v4.578h-4.048z"/><path data-name="Rectangle 2191" fill="#00b2ff" d="M83.629 122.487h4.048v4.579h-4.048z"/><path data-name="Rectangle 2192" fill="#00b2ff" d="M74.472 104.173h4.048v4.578h-4.048z"/></g></g></svg>